# xmcd
#
# Track frame offsets: 
#        150
#        13823
#        44774
#        55973
#        76792
#        93745
#        117931
#        127374
#        153217
#        177934
#        201065
#        221128
#        237160
#        261762
#        280598
#        298860
#
# Disc length: 4300 seconds
#
# Revision: 0
# Processed by: cddbd v1.5.2PL0 Copyright (c) Steve Scherf et al.
# Submitted via: ExactAudioCopy v0.95a5
#
DISCID=f110ca10
DTITLE=Hooker, John Lee - Box Set - CD3
DYEAR=2006
DGENRE=Blues
TTITLE0=One Burbon, One Shot, One Beer
TTITLE1=Let's Go Out Tonight
TTITLE2=Bottle Up And Go
TTITLE3=Let's Make It (Live)
TTITLE4=King Of The World (Live)
TTITLE5=I'm Bad Like Jesse James (Live)
TTITLE6=Think Twice Before You Go
TTITLE7=Mean Mean Women
TTITLE8=Burning Hell - John Lee Hooker and Canned Heat
TTITLE9=Peavine - John Lee Hooker and Canned Heat
TTITLE10=I've Got My Eyes On You - John Lee Hooker and Canned Heat
TTITLE11=Doin' The Shout
TTITLE12=Bluebird
TTITLE13=Early One Morning
TTITLE14=We'll Meet Again
TTITLE15=Loving People
EXTD=
EXTT0=
EXTT1=
EXTT2=
EXTT3=
EXTT4=
EXTT5=
EXTT6=
EXTT7=
EXTT8=
EXTT9=
EXTT10=
EXTT11=
EXTT12=
EXTT13=
EXTT14=
EXTT15=
PLAYORDER=
